<svg xmlns="http://www.w3.org/2000/svg" width="700" height="164" viewBox="0 0 128 128" xml:space="preserve"><circle style="fill:#4ab8a1" cx="64" cy="64" r="64"/><path style="fill:#43a691" d="M123 89 95 21c-1-3-5-4-8-3l-21 7-11 4-10 3-10 4-5 2a6 6 0 0 0-1 0c-3 1-4 3-4 6v58l1 3 6 14a64 64 0 0 0 91-30z"/><path style="fill:#b3b3b3" d="M103 57v44c0 3-3 6-6 6H31c-3 0-6-3-6-6V57h78z"/><path style="fill:#a6a6a6" d="M100 57v44c0 3-3 6-6 6h3c3 0 6-3 6-6V57h-3z"/><path style="fill:#263740" d="M62 84c0-2 1-3 3-2l7 5c2 1 2 2 0 3l-7 5c-2 1-3 0-3-1V84z"/><path style="fill:#242424" d="m30 58 69-24-4-13c-1-3-5-4-8-3L30 38v20z"/><path style="fill:#ffd464" d="m59 48 11-4-25-12-10 4zM66 25l-11 4 25 12 10-4zM76 22l23 11-4-11-8-4z"/><path style="fill:#242424" d="M25 57h78v16H25z"/><path style="fill:#ffd464" d="M94 57H82L66 73h12zM100 73l3-4V58L88 73zM44 73h12l16-16H60z"/><path style="fill:#e6e6e6" d="M30 38c-3 0-5 3-5 6v29h8l16-16-19-19z"/><path style="fill:#d9d9d9" d="M30 38h-1l18 19-16 16h2l16-16-19-19z"/><circle style="fill:#242424" cx="34" cy="56.5" r="5"/><circle style="fill:#fff" cx="34" cy="56.5" r="3"/><path style="fill:#263740" d="M103 57v44c0 3-3 6-6 6H31c-3 0-6-3-6-6V57h78z"/><path style="fill:#1e2c33" d="M100 57v44c0 3-3 6-6 6h3c3 0 6-3 6-6V57h-3z"/><path style="fill:#f5f5f5" d="M62 84c0-2 1-3 3-2l7 5c2 1 2 2 0 3l-7 5c-2 1-3 0-3-1V84z"/><path style="fill:#242424" d="m30 58 69-24-4-13c-1-3-5-4-8-3L30 38v20z"/><path style="fill:#ffd464" d="m59 48 11-4-25-12-10 4zM66 25l-11 4 25 12 10-4zM76 22l23 11-4-11-8-4z"/><path style="fill:#242424" d="M25 57h78v16H25z"/><path style="fill:#ffd464" d="M94 57H82L66 73h12zM100 73l3-4V58L88 73zM44 73h12l16-16H60z"/><path style="fill:#263740" d="M30 38c-3 0-5 3-5 6v29h8l16-16-19-19z"/><path style="fill:#d9d9d9" d="M30 38h-1l18 19-16 16h2l16-16-19-19z"/><circle style="fill:#f5f5f5" cx="34" cy="56.5" r="5"/><circle style="fill:#263740" cx="34" cy="56.5" r="3"/><path style="fill:#d9d9d9" d="M25 73h78v2H25z"/></svg>